<svg width="100" height="110" viewBox="0 0 100 110" fill="none" xmlns="http://www.w3.org/2000/svg">
<path d="M31.1417 70.731V102.459H10.7585C10.6218 102.459 10.4851 102.456 10.3504 102.45C9.49642 102.417 8.66983 102.28 7.88111 102.05C3.33581 100.73 0 96.3556 0 91.1645V72.9391C0 71.7179 0.940166 70.731 2.1034 70.731H31.1417Z" fill="#E0D3CE"/>
<path d="M31.1417 70.731V102.454L10.3504 102.45C9.49641 102.417 8.66983 102.28 7.8811 102.05C12.3718 100.752 15.6718 96.4351 15.6738 91.3102L15.6801 70.731H31.1417Z" fill="#CDBFBB"/>
<path d="M100 11.2986V29.524C100 30.745 99.0599 31.7322 97.8966 31.7322H68.8585V0.0045166H89.2418C89.3785 0.0045166 89.5152 0.00666504 89.6498 0.0133252C90.5038 0.0464111 91.3325 0.183267 92.1232 0.415298C96.6663 1.73766 100 6.10973 100 11.2986Z" fill="#E0D3CE"/>
<path d="M92.1232 0.415181C87.6348 1.71348 84.3389 6.03033 84.3366 11.1531L84.3303 31.7323H68.8583V0.00891113L89.6496 0.0134228C90.5036 0.0465088 91.3322 0.183364 92.1232 0.415181Z" fill="#CDBFBB"/>
<path d="M89.1553 0.0154696C83.2955 0.0154696 78.5442 5.0035 78.5419 11.153L78.5208 91.1713C78.5208 97.409 73.7021 102.466 67.7603 102.463L57.1847 102.461L42.815 102.457L10.8446 102.448C16.7044 102.448 21.4558 97.4597 21.458 91.3103L21.4791 11.292C21.4791 5.0542 26.2978 -0.00236245 32.2396 8.28056e-07L89.1553 0.0154696Z" fill="white"/>
<path d="M64.2248 82.8049L60.1885 86.9339L61.1413 92.7633C61.3537 94.0616 61.013 95.3799 60.2075 96.3823C59.4462 97.3317 58.3544 97.9015 57.185 97.9655V102.461L42.8152 102.457V97.9653C41.6459 97.9013 40.5543 97.3315 39.7927 96.3821C38.9872 95.3797 38.6465 94.0614 38.8589 92.7631L39.8118 86.9337L35.7777 82.8068C34.6104 81.6123 34.2002 79.8634 34.7049 78.2384C35.2075 76.6133 36.5202 75.454 38.1291 75.2089L43.703 74.3587L46.1955 69.0549C46.9148 67.5248 48.3723 66.573 50.0003 66.573C51.6283 66.573 53.0858 67.5248 53.8052 69.057L56.2976 74.3585L61.8736 75.2086C63.4805 75.4538 64.7929 76.6131 65.2957 78.2381C65.8002 79.8637 65.3901 81.6125 64.2248 82.8049Z" fill="#EFE2DD"/>
<path d="M89.1553 0.0154687C83.2955 0.0154687 78.5441 5.00349 78.5419 11.153L78.5208 91.1713C78.5208 97.409 73.7021 102.466 67.7603 102.463L62.6976 102.461C68.5975 102.415 73.3677 97.376 73.3677 91.1713L73.3888 11.153C73.3908 5.00349 78.1422 0.0154687 84.0022 0.0154687L32.1492 0.00214844C32.1786 0 32.2102 0 32.2396 0L89.1553 0.0154687Z" fill="#EFE2DD"/>
<path d="M52.28 109.777L50.0001 108.19L47.7203 109.777C46.8806 110.361 45.7592 109.729 45.7592 108.672V89.7765H54.2413V108.672C54.2411 109.729 53.1196 110.361 52.28 109.777Z" fill="#F37D7E"/>
<path d="M62.1687 80.5926L57.0252 85.8541L58.2392 93.2853C58.4207 94.3982 57.3087 95.2462 56.3558 94.7215L50.0002 91.2138L43.6443 94.7215C42.6915 95.2462 41.5794 94.3984 41.7609 93.2853L42.4181 89.2619L42.9749 85.8541L37.8314 80.5926C37.0617 79.8045 37.4872 78.4301 38.551 78.2686L45.6573 77.1847L48.8361 70.4234C49.3117 69.4102 50.6884 69.4102 51.164 70.4234L54.3429 77.1847L56.7105 77.5461L61.4492 78.2686C62.5127 78.4301 62.9382 79.8047 62.1687 80.5926Z" fill="#FFCE8B"/>
<path d="M62.1686 80.5926L57.0251 85.8541L58.2391 93.2853C58.4207 94.3982 57.3086 95.2462 56.3557 94.7216L50.0001 91.2138L43.6442 94.7216C42.6914 95.2462 41.5793 94.3984 41.7608 93.2853L42.418 89.262C52.2811 87.372 55.612 81.6872 56.7102 77.5459L61.4489 78.2684C62.5127 78.4302 62.9381 79.8048 62.1686 80.5926Z" fill="#FFB54E"/>
<path d="M48.4082 16.0192L48.5934 15.922V20.4875H48.0502C47.177 20.4875 46.4691 21.2306 46.4691 22.1474C46.4691 23.0641 47.177 23.8072 48.0502 23.8072H52.2992C53.1724 23.8072 53.8803 23.0641 53.8803 22.1474C53.8803 21.2306 53.1724 20.4875 52.2992 20.4875H51.7558V13.2361C51.7558 12.6607 51.4722 12.1264 51.0058 11.8241C50.5396 11.5216 49.9576 11.4941 49.4674 11.7515L46.9938 13.0498C46.2127 13.4597 45.8961 14.4568 46.2868 15.2769C46.6774 16.0967 47.627 16.4295 48.4082 16.0192Z" fill="#2A3657"/>
<path d="M42.5915 33.1087H57.4086C58.2819 33.1087 58.9898 32.3656 58.9898 31.4488C58.9898 30.5321 58.2819 29.7889 57.4086 29.7889H42.5915C41.7183 29.7889 41.0104 30.5321 41.0104 31.4488C41.0104 32.3656 41.7183 33.1087 42.5915 33.1087Z" fill="#2A3657" fill-opacity="0.7"/>
<path d="M32.9625 44.1697H67.0375C67.9107 44.1697 68.6186 43.4266 68.6186 42.5099C68.6186 41.5931 67.9107 40.85 67.0375 40.85H32.9625C32.0892 40.85 31.3813 41.5931 31.3813 42.5099C31.3813 43.4266 32.0892 44.1697 32.9625 44.1697Z" fill="#2A3657" fill-opacity="0.7"/>
<path d="M67.0377 47.5403H32.9625C32.0892 47.5403 31.3813 48.2834 31.3813 49.2002C31.3813 50.1169 32.0892 50.86 32.9625 50.86H67.0375C67.9107 50.86 68.6186 50.1169 68.6186 49.2002C68.6188 48.2836 67.9109 47.5403 67.0377 47.5403Z" fill="#2A3657" fill-opacity="0.7"/>
<path d="M67.0377 54.2306H32.9625C32.0892 54.2306 31.3813 54.9737 31.3813 55.8905C31.3813 56.8072 32.0892 57.5504 32.9625 57.5504H67.0375C67.9107 57.5504 68.6186 56.8072 68.6186 55.8905C68.6186 54.9737 67.9109 54.2306 67.0377 54.2306Z" fill="#2A3657" fill-opacity="0.7"/>
</svg>
