<svg width="90" height="110" viewBox="0 0 90 110" fill="none" xmlns="http://www.w3.org/2000/svg">
<path d="M62.0694 0H0V110H90V26.741L62.0694 0ZM53.617 56.8333C53.617 57.8472 52.7592 58.6667 51.7021 58.6667H32.5532C31.4962 58.6667 30.6383 57.8472 30.6383 56.8333C30.6383 55.8195 31.4962 55 32.5532 55H51.7021C52.7592 55 53.617 55.8195 53.617 56.8333ZM18.6932 43.0448L19.306 41.6863C19.8632 40.4507 20.7785 39.4735 21.9523 38.8612L26.1728 36.8683C24.3172 35.728 22.9806 34.012 22.184 31.7478C20.8743 30.9833 20.0489 29.6248 20.0489 28.1105V26.8877C20.0489 25.663 20.6023 24.5172 21.5387 23.716C21.7226 22.5922 22.0251 21.5362 22.4406 20.5645C22.636 20.1117 22.8006 19.7725 22.9328 19.4975C23.0209 19.3142 23.1319 19.0868 23.1472 19.0227C23.153 18.964 23.1434 18.7422 22.9826 17.9722C22.8581 17.3727 22.7757 16.8227 22.7183 16.3515C22.6474 15.7612 22.8428 15.169 23.2526 14.729C24.1104 13.8123 25.7821 13.8545 26.5826 14.8317C26.7281 15.0095 27.0249 15.2992 27.6051 15.6732C28.5855 16.3075 29.9183 16.5935 31.3143 16.4762C31.5957 16.4542 31.883 16.4432 32.1779 16.4432C39.6383 16.4432 42.1028 20.207 42.7864 23.6867C43.7438 24.4897 44.3068 25.6447 44.3068 26.8858V28.1087C44.3068 29.623 43.4815 30.9815 42.1717 31.746C41.3713 34.0193 40.027 35.739 38.16 36.8812L42.2234 38.8667C43.4336 39.4478 44.3968 40.4213 44.9943 41.6735L45.653 43.0522L44.3623 43.9303C40.7719 46.376 36.5591 47.6667 32.174 47.6667C27.7736 47.6667 23.5474 46.3668 19.9494 43.9047L18.6932 43.0448ZM24.8936 56.8333C24.8936 57.31 24.683 57.7867 24.3383 58.135C23.9745 58.465 23.4957 58.6667 22.9787 58.6667C22.4617 58.6667 21.9638 58.465 21.6192 58.1167C21.2745 57.7848 21.0638 57.31 21.0638 56.8333C21.0638 56.3548 21.2745 55.8782 21.6192 55.5317C22.3085 54.8717 23.6298 54.8533 24.3383 55.5317C24.683 55.8782 24.8936 56.3548 24.8936 56.8333ZM21.0638 66C21.0638 64.9862 21.9217 64.1667 22.9787 64.1667H55.5319C56.5889 64.1667 57.4468 64.9862 57.4468 66C57.4468 67.0138 56.5889 67.8333 55.5319 67.8333H22.9787C21.9217 67.8333 21.0638 67.0138 21.0638 66ZM30.9945 87.571C30.9351 89.254 28.9934 89.8847 27.7257 88.8672C25.9353 87.4298 24.143 85.9943 22.3526 84.557C20.4568 83.0353 23.1817 80.4558 25.0602 81.9628C25.853 82.599 26.6457 83.2333 27.4366 83.8695C27.9498 79.7243 29.3611 75.7277 33.5566 73.6358C35.7434 72.5468 37.6813 75.7112 35.4887 76.802C31.3334 78.8755 31.1343 83.5982 30.9945 87.571ZM59.624 84.8082C59.153 84.1903 53.0674 87.0283 51.3268 86.427C49.9615 85.9558 48.937 85.3545 48.0772 84.4708C44.0138 86.581 39.3913 87.7232 35.8085 83.996C34.1406 82.2598 36.8406 79.6602 38.5162 81.4037C41.3674 84.3718 44.9119 82.0802 47.6234 80.487C48.5004 79.9718 49.7413 80.2872 50.243 81.1452C52.223 84.524 57.0121 80.7015 59.8021 80.9032C61.2823 81.0113 62.1172 81.8968 62.9272 82.9583C64.3902 84.8705 61.064 86.6965 59.624 84.8082ZM66.466 67.3017C66.1021 67.6317 65.6043 67.8333 65.1064 67.8333C64.6085 67.8333 64.1106 67.6317 63.7468 67.3017C63.383 66.9533 63.1915 66.495 63.1915 66C63.1915 65.5032 63.4021 65.0448 63.7468 64.6983C64.4745 64.02 65.7383 64.02 66.466 64.6983C66.8106 65.0448 67.0213 65.5215 67.0213 66C67.0213 66.495 66.8298 66.9533 66.466 67.3017ZM76.0404 67.2833C75.6766 67.6317 75.1787 67.8333 74.6809 67.8333C74.183 67.8333 73.6851 67.6317 73.3213 67.3017C72.9575 66.9533 72.766 66.495 72.766 66C72.766 65.5032 72.9766 65.0448 73.3213 64.6983C74.0489 64.02 75.3128 64.02 76.0404 64.6983C76.3851 65.0448 76.5957 65.5215 76.5957 66C76.5957 66.4767 76.4043 66.935 76.0404 67.2833ZM74.6809 58.6667H61.2766C60.2196 58.6667 59.3617 57.8472 59.3617 56.8333C59.3617 55.8195 60.2196 55 61.2766 55H74.6809C75.7379 55 76.5957 55.8195 76.5957 56.8333C76.5957 57.8472 75.7379 58.6667 74.6809 58.6667ZM59.3617 29.3333V3.66667L86.1702 29.3333H59.3617Z" fill="white"/>
</svg>
